<svg width="104" height="104" viewBox="0 0 104 104" fill="none" xmlns="http://www.w3.org/2000/svg">
<path d="M6.85477 31.3761V31.374C6.95171 31.0131 6.90221 30.6357 6.71452 30.3119C6.45465 29.8623 5.98235 29.6106 5.49561 29.6106C5.25842 29.6106 5.01712 29.6704 4.79643 29.7962C4.12819 30.184 3.89719 31.0441 4.28288 31.7144C4.47262 32.0382 4.77581 32.2712 5.13468 32.3661L5.5348 32.4177C5.74723 32.4156 5.98853 32.3517 6.20097 32.2279C6.52684 32.0382 6.75784 31.7371 6.85477 31.3761ZM102.621 63.4723C105.814 49.6991 103.42 35.6062 95.875 23.7924C88.3986 12.0838 76.7601 4.06491 63.1065 1.20839C46.7677 -2.21324 31.7921 1.64149 18.5943 12.6592C18.3118 12.8964 18.0643 13.1666 17.8024 13.4512L17.4167 13.8616L17.3569 14.0184L17.429 14.171C18.1427 14.8042 18.6851 14.5216 19.0831 14.3154L19.1925 14.2597C23.6082 12.0425 28.3622 10.5184 33.3266 9.72638C50.2801 7.02454 67.9533 13.6471 78.3585 26.6015C85.2719 35.2082 88.4502 45.8052 87.3096 56.4372C86.1732 67.0733 80.8211 76.7814 72.2392 83.7711C65.235 89.48 57.0119 92.9099 47.7989 93.9617C37.3752 95.1497 27.3908 93.178 18.1262 88.0878L17.9921 87.9991C17.8745 87.9166 17.7405 87.8176 17.5734 87.8032C17.3507 87.7867 17.1424 87.8156 16.9402 87.8444L16.6969 87.8774L16.5442 87.9661L16.5112 88.1435L16.5546 88.3601C16.5855 88.5498 16.6206 88.7643 16.7505 88.9314C16.9609 89.2016 17.2187 89.4264 17.4662 89.645L17.6477 89.8038C25.5882 96.9296 34.9394 101.286 45.4415 102.758C47.7886 103.088 50.1274 103.249 52.4456 103.249C75.9083 103.249 97.1991 86.8503 102.621 63.4723ZM0.700364 55.2162C0.921048 55.3399 1.15617 55.4039 1.40161 55.4039L1.79967 55.3482C2.12554 55.2574 2.42871 55.0264 2.62052 54.7006C2.80614 54.3768 2.85359 53.9993 2.75871 53.6363C2.66178 53.2754 2.42871 52.9722 2.10491 52.7825C1.7811 52.5989 1.40367 52.5535 1.04067 52.6443C0.675617 52.7412 0.374493 52.9722 0.186808 53.2981C-0.198873 53.9684 0.0321244 54.8284 0.700364 55.2162ZM0.397183 45.469V45.471C0.42812 45.8443 0.605492 46.1826 0.892175 46.4218C1.14792 46.6384 1.45936 46.7539 1.78935 46.7539L1.92548 46.7456C2.28847 46.7147 2.62878 46.5373 2.87009 46.2486C3.10934 45.966 3.22277 45.603 3.19183 45.2235C3.15883 44.8523 2.98351 44.514 2.69683 44.2748C2.44521 44.0624 2.12554 43.9468 1.79554 43.9468C1.37892 43.9468 0.987049 44.1284 0.718928 44.446C0.479682 44.7347 0.364183 45.0977 0.397183 45.469ZM8.66356 75.5088C7.89014 75.5088 7.26108 76.1399 7.26108 76.9134C7.26108 77.6868 7.89014 78.3158 8.66356 78.3158C9.43699 78.3158 10.066 77.6868 10.066 76.9134C10.066 76.1399 9.43699 75.5088 8.66356 75.5088ZM3.05158 39.5744L3.19183 39.5806C3.50945 39.5806 3.82295 39.4651 4.08282 39.2506C4.36537 39.0114 4.54274 38.6731 4.57368 38.2998C4.60874 37.9265 4.49324 37.5615 4.254 37.2748C4.01269 36.9881 3.67445 36.8128 3.30114 36.7798C2.9299 36.7468 2.56278 36.8623 2.27609 37.1015C1.98941 37.3428 1.81204 37.679 1.77904 38.0544C1.7481 38.4277 1.8636 38.7927 2.10285 39.0774C2.34209 39.364 2.67827 39.5394 3.05158 39.5744ZM4.63762 71.4066L4.91399 71.4293C5.17592 71.4293 5.45642 71.3406 5.69567 71.1735C6.00298 70.959 6.20716 70.6393 6.27316 70.2681C6.3371 69.8989 6.2546 69.5277 6.0401 69.2224C5.82561 68.913 5.50386 68.7089 5.13262 68.6408C4.76137 68.5789 4.39218 68.6614 4.08488 68.878C3.77757 69.0904 3.57339 69.4101 3.50945 69.7813C3.44551 70.1505 3.52801 70.5218 3.74251 70.8311C3.95494 71.1323 4.27256 71.3385 4.63762 71.4066ZM1.96672 63.4846C2.30702 63.6125 2.69477 63.5981 3.03921 63.4372C3.37745 63.2804 3.63526 62.9999 3.76314 62.6431C3.89101 62.2925 3.87657 61.911 3.71776 61.5727C3.56101 61.2345 3.28051 60.9767 2.92577 60.8467C2.77108 60.791 2.60815 60.7622 2.44522 60.7622C2.24103 60.7622 2.03684 60.8075 1.85122 60.8942C1.51091 61.053 1.25517 61.3314 1.1273 61.6841C0.865363 62.4121 1.24073 63.2186 1.96672 63.4846ZM10.4084 24.0358C10.2826 23.6852 10.0248 23.4047 9.68242 23.2459C9.4968 23.1572 9.29261 23.1139 9.08843 23.1139C8.92756 23.1139 8.76462 23.1407 8.61199 23.1964C8.25725 23.3284 7.97469 23.5862 7.82207 23.9223C7.6612 24.2627 7.6447 24.6442 7.77257 24.9969C7.89838 25.3475 8.15619 25.6259 8.49856 25.7868C8.83268 25.9436 9.22249 25.9601 9.56898 25.8343C9.92373 25.7064 10.2042 25.4486 10.363 25.1083C10.5198 24.768 10.5363 24.3885 10.4084 24.0358ZM12.9762 81.6509C12.609 81.7148 12.2873 81.921 12.0708 82.2304C11.8563 82.5377 11.7738 82.9069 11.8377 83.2761C11.9016 83.6453 12.1079 83.967 12.4172 84.1815C12.6544 84.3506 12.9329 84.4393 13.2195 84.4393L13.4835 84.4146C13.8321 84.3506 14.1538 84.1444 14.3683 83.8391C14.5828 83.5298 14.6674 83.1565 14.6014 82.7893C14.5375 82.4181 14.3312 82.0984 14.026 81.8839C13.7207 81.6715 13.3474 81.5849 12.9762 81.6509ZM14.1951 17.3204C13.9558 17.1513 13.6774 17.0667 13.3928 17.0667C13.3103 17.0667 13.2278 17.0729 13.1453 17.0873C12.7761 17.1513 12.4544 17.3575 12.2399 17.6648C12.0233 17.9701 11.9408 18.3413 12.0068 18.7126C12.0708 19.0817 12.277 19.4035 12.5843 19.618C12.8215 19.785 13.0979 19.8737 13.3825 19.8737L13.6527 19.849C13.9992 19.785 14.323 19.5788 14.5395 19.2735C14.752 18.9662 14.8345 18.5929 14.7705 18.2258C14.7045 17.8546 14.5003 17.5349 14.1951 17.3204Z" fill="white"/>
</svg>
