<svg width="21" height="21" viewBox="0 0 21 21" fill="none" xmlns="http://www.w3.org/2000/svg">
<path d="M10.189 13.2017C7.54727 13.2017 5.198 14.4772 3.70233 16.4566C3.38042 16.8827 3.21947 17.0957 3.22473 17.3836C3.2288 17.606 3.36847 17.8866 3.54348 18.0239C3.76999 18.2017 4.08389 18.2017 4.7117 18.2017H15.6663C16.2941 18.2017 16.608 18.2017 16.8345 18.0239C17.0095 17.8866 17.1492 17.606 17.1533 17.3836C17.1585 17.0957 16.9976 16.8827 16.6757 16.4566C15.18 14.4772 12.8307 13.2017 10.189 13.2017Z" stroke="#414042" stroke-width="1.5" stroke-linecap="round" stroke-linejoin="round"/>
<path d="M10.189 10.7017C12.2601 10.7017 13.939 9.02273 13.939 6.95166C13.939 4.88059 12.2601 3.20166 10.189 3.20166C8.11794 3.20166 6.439 4.88059 6.439 6.95166C6.439 9.02273 8.11794 10.7017 10.189 10.7017Z" stroke="#414042" stroke-width="1.5" stroke-linecap="round" stroke-linejoin="round"/>
</svg>
