<svg width="23" height="23" viewBox="0 0 23 23" fill="none" xmlns="http://www.w3.org/2000/svg">
<path d="M1.90234 2.12522C2.4308 2.12522 4.28039 2.38945 4.28039 4.50327L4.28039 4.92509M9.30072 16.1293L9.30072 4.50327C9.30072 2.65368 9.03649 1.06831 7.45112 2.38945C6.18283 3.44636 4.80885 4.52026 4.28039 4.92509M4.28039 16.3935L4.28039 4.92509M9.30072 5.03175C9.65302 4.76754 10.6747 3.97488 11.943 2.91797C13.5284 1.59683 14.321 1.86106 14.321 4.50334L14.321 15.8651C14.4091 17.1862 14.8495 19.3409 19.6056 19.3409M20.9267 19.3409L18.2845 20.9263L18.2845 17.7556L20.9267 19.3409Z" stroke="#75563D" stroke-width="2" stroke-linejoin="round"/>
</svg>
