<svg width="23" height="23" viewBox="0 0 23 23" fill="none" xmlns="http://www.w3.org/2000/svg">
<path d="M9.32508 11.2831C8.24665 9.93509 7.11445 8.04788 7.9772 4.81258C9.05563 0.768466 14.178 1.03805 15.7957 3.46451C17.6829 6.29537 15.7957 8.85668 14.178 12.092C12.5604 15.3273 11.7516 20.7194 16.6045 20.7195C18.7614 20.7195 19.6601 18.9221 20.1094 18.0234M10.4035 13.9792C10.4035 16.0638 8.71361 17.7537 6.629 17.7537C4.5444 17.7537 2.85449 16.0638 2.85449 13.9792C2.85449 11.8946 4.5444 10.2047 6.629 10.2047C8.71361 10.2047 10.4035 11.8946 10.4035 13.9792Z" stroke="#75563D" stroke-width="2" stroke-linejoin="round"/>
</svg>
