<svg width="23" height="23" viewBox="0 0 23 23" fill="none" xmlns="http://www.w3.org/2000/svg">
<path d="M2.49902 1.99687C3.69993 1.81211 6.10176 2.44028 6.10176 6.431M6.10176 6.431C6.10176 10.4217 6.10176 13.8213 6.10176 15.0222L6.10176 6.431ZM6.10176 6.431C7.5798 4.39871 10.9793 0.722111 12.753 2.27406C13.4181 2.93921 13.3996 4.39879 13.3072 5.04544C13.3072 7.63201 13.3072 13.304 13.3072 15.2994C13.3072 17.7936 13.5844 20.5649 17.7414 19.4564C21.8984 18.3478 21.4626 13.6286 19.4042 12.8052C18.0185 12.2509 16.0786 12.2509 14.97 14.1908C13.8615 16.1308 12.1987 21.6734 7.21029 20.842" stroke="#75563D" stroke-width="2" stroke-linejoin="round"/>
</svg>
