<svg width="24" height="23" viewBox="0 0 24 23" fill="none" xmlns="http://www.w3.org/2000/svg">
<path d="M3.63281 2.12306C4.15514 2.12306 5.98327 2.38422 5.98327 4.47352L5.98327 4.89044M10.9453 15.9646L10.9453 4.47352C10.9453 2.64538 10.6842 1.07841 9.11721 2.38422C7.86364 3.42887 6.50559 4.4903 5.98327 4.89044M5.98327 16.2258L5.98327 4.89044M10.9453 4.99586C11.2936 4.73471 12.3034 3.95125 13.557 2.90661C15.1239 1.6008 15.9074 1.86196 15.9074 4.47358L15.9074 15.7035C15.9945 17.0093 16.9521 19.8821 20.086 20.9267M12.7735 19.0986C15.1239 18.2281 19.9293 15.7035 20.3472 12.5696C20.8695 8.65217 20.3472 3.6901 15.9074 8.91333" stroke="#75563D" stroke-width="2" stroke-linejoin="round"/>
</svg>
