<svg width="24" height="23" viewBox="0 0 24 23" fill="none" xmlns="http://www.w3.org/2000/svg">
<path d="M4.50306 7.0372C7.6436 2.68884 15.6157 1.7224 19.7226 8.00349M19.481 15.2509C16.3405 19.5993 8.36834 20.5657 4.26148 14.2846M9.57623 8.96984C9.57623 10.5709 8.27833 11.8688 6.67728 11.8688C5.07623 11.8688 3.77832 10.5709 3.77832 8.96984C3.77832 7.36879 5.07623 6.07088 6.67728 6.07088C8.27833 6.07088 9.57623 7.36879 9.57623 8.96984ZM14.4078 13.3183C14.4078 11.7172 15.7057 10.4193 17.3068 10.4193C18.9078 10.4193 20.2057 11.7172 20.2057 13.3183C20.2057 14.9193 18.9078 16.2172 17.3068 16.2172C15.7057 16.2172 14.4078 14.9193 14.4078 13.3183Z" stroke="#75563D" stroke-width="2" stroke-linejoin="round"/>
</svg>
